<svg width="85" height="84" viewBox="0 0 85 84" fill="none" xmlns="http://www.w3.org/2000/svg">
<circle cx="42.75" cy="42" r="42" fill="#93E396"/>
<g clip-path="url(#clip0_115_689)">
<path d="M44.3906 40.3593C46.2028 40.3593 47.6719 38.8903 47.6719 37.0781C47.6719 35.2659 46.2028 33.7968 44.3906 33.7968C42.5784 33.7968 41.1094 35.2659 41.1094 37.0781C41.1094 38.8903 42.5784 40.3593 44.3906 40.3593Z" fill="#EEF3F9"/>
<path d="M43.3176 15.7762C37.7814 16.1541 32.5993 18.6351 28.8333 22.7106C25.0673 26.7862 23.0027 32.1478 23.0625 37.6966V38.3627L19.1085 47.058C18.9421 47.4257 18.917 47.8418 19.0381 48.2268C19.1592 48.6118 19.4179 48.9387 19.7648 49.1449L23.0625 51.1317V56.7656C23.0625 58.5061 23.7539 60.1753 24.9846 61.406C26.2153 62.6367 27.8845 63.3281 29.625 63.3281H36.1875V68.25H59.1562V52.4376C62.293 49.4301 64.4353 45.5354 65.2957 41.2757C66.1562 37.0161 65.6936 32.5952 63.9701 28.6059C62.2467 24.6166 59.3447 21.2496 55.6533 18.9564C51.9619 16.6633 47.6576 15.5536 43.3176 15.7762ZM55.875 37.8984C55.8765 38.0994 55.8042 38.294 55.6717 38.4453C55.5392 38.5965 55.3558 38.6938 55.1564 38.7187L52.323 39.0731C52.1269 39.8516 51.8167 40.5969 51.4026 41.2847L53.1597 43.5422C53.2823 43.6999 53.343 43.8969 53.3307 44.0963C53.3183 44.2956 53.2336 44.4836 53.0925 44.625L51.9375 45.7734C51.8611 45.8495 51.7706 45.9099 51.6709 45.951C51.5712 45.9921 51.4645 46.0131 51.3567 46.0129C51.1749 46.0127 50.9983 45.9521 50.8546 45.8407L48.5906 44.0901C47.9028 44.5043 47.1575 44.8144 46.379 45.0105L46.0312 47.8439C46.0063 48.0434 45.909 48.2268 45.7577 48.3592C45.6065 48.4917 45.4119 48.564 45.2109 48.5625H43.5703C43.3692 48.564 43.1746 48.4917 43.0234 48.3592C42.8722 48.2268 42.7749 48.0434 42.75 47.8439L42.3956 45.0105C41.6171 44.8144 40.8718 44.5043 40.184 44.0901L37.9265 45.8472C37.7829 45.9587 37.6063 46.0193 37.4245 46.0195C37.3162 46.0188 37.2092 45.9967 37.1095 45.9545C37.0098 45.9123 36.9195 45.8507 36.8437 45.7734L35.6953 44.625C35.5541 44.4836 35.4695 44.2956 35.4571 44.0963C35.4447 43.8969 35.5055 43.6999 35.628 43.5422L37.3851 41.2847C36.971 40.5969 36.6608 39.8516 36.4647 39.0731L33.6248 38.7187C33.4253 38.6938 33.2419 38.5965 33.1095 38.4453C32.977 38.294 32.9047 38.0994 32.9062 37.8984V36.2578C32.9047 36.0568 32.977 35.8621 33.1095 35.7109C33.2419 35.5597 33.4253 35.4624 33.6248 35.4375L36.4582 35.0831C36.6543 34.3046 36.9644 33.5593 37.3785 32.8715L35.6214 30.6206C35.4979 30.4616 35.4372 30.2627 35.4508 30.0618C35.4644 29.861 35.5514 29.6721 35.6953 29.5312L36.8437 28.3828C36.9851 28.2417 37.173 28.157 37.3724 28.1446C37.5718 28.1322 37.7688 28.193 37.9265 28.3155L40.1906 30.0661C40.8784 29.6519 41.6236 29.3418 42.4021 29.1457L42.75 26.3123C42.7749 26.1128 42.8722 25.9294 43.0234 25.797C43.1746 25.6645 43.3692 25.5922 43.5703 25.5937H45.2109C45.4119 25.5922 45.6065 25.6645 45.7577 25.797C45.909 25.9294 46.0063 26.1128 46.0312 26.3123L46.3856 29.1457C47.1641 29.3418 47.9093 29.6519 48.5971 30.0661L50.8546 28.309C51.0124 28.1864 51.2094 28.1256 51.4088 28.138C51.6081 28.1504 51.7961 28.2351 51.9375 28.3762L53.0859 29.5312C53.227 29.6726 53.3117 29.8606 53.3241 30.0599C53.3365 30.2593 53.2757 30.4563 53.1532 30.614L51.4026 32.8781C51.8167 33.5659 52.1269 34.3111 52.323 35.0897L55.1564 35.4375C55.3558 35.4624 55.5392 35.5597 55.6717 35.7109C55.8042 35.8621 55.8765 36.0568 55.875 36.2578V37.8984Z" fill="#EEF3F9"/>
</g>
<defs>
<clipPath id="clip0_115_689">
<rect width="52.5" height="52.5" fill="white" transform="translate(16.5 15.75)"/>
</clipPath>
</defs>
</svg>
