<svg width="85" height="84" viewBox="0 0 85 84" fill="none" xmlns="http://www.w3.org/2000/svg">
<circle cx="42.25" cy="42" r="42" fill="#FF9696"/>
<g clip-path="url(#clip0_115_743)">
<path d="M63.5762 60.0469H48.8106C48.4898 60.0469 48.1761 59.9527 47.9083 59.7762L18.108 40.1757C17.5751 39.8022 17.1212 39.3271 16.7725 38.7777C16.4237 38.2283 16.1869 37.6154 16.0756 36.9743C15.9643 36.3331 15.9808 35.6763 16.124 35.0415C16.2673 34.4067 16.5345 33.8065 16.9103 33.2752L27.1396 18.9526C27.4242 18.5539 27.7845 18.2152 28.2 17.9559C28.6156 17.6966 29.0781 17.5217 29.5613 17.4412C30.0444 17.3608 30.5387 17.3764 31.0159 17.487C31.493 17.5977 31.9436 17.8014 32.342 18.0863C32.8376 18.4418 33.2396 18.9122 33.5136 19.4571C33.7877 20.002 33.9255 20.6052 33.9154 21.215C34.1768 22.7716 34.7596 24.2567 35.6268 25.5756C36.494 26.8945 37.6265 28.0182 38.9521 28.8751C41.8314 30.4783 45.1647 31.0709 48.4202 30.5584L47.0059 26.1434C46.8759 25.7297 46.9149 25.2812 47.1146 24.8962C47.3143 24.5111 47.6583 24.2208 48.0715 24.0887C48.4846 23.9566 48.9333 23.9935 49.3193 24.1914C49.7053 24.3892 49.9972 24.7318 50.1313 25.1443L56.5708 45.2813H61.9356C63.6761 45.2813 65.3453 45.9727 66.576 47.2034C67.8067 48.4341 68.4981 50.1033 68.4981 51.8438V55.1251C68.4981 56.4304 67.9796 57.6823 67.0565 58.6054C66.1335 59.5284 64.8816 60.0469 63.5762 60.0469Z" fill="white"/>
<path d="M35.6875 56.7656H16V60.0469H35.6875V56.7656Z" fill="white"/>
<path d="M24.2031 48.5625H16V51.8438H24.2031V48.5625Z" fill="white"/>
</g>
<defs>
<clipPath id="clip0_115_743">
<rect width="52.5" height="52.5" fill="white" transform="translate(16 15.75)"/>
</clipPath>
</defs>
</svg>
