<svg width="85" height="84" viewBox="0 0 85 84" fill="none" xmlns="http://www.w3.org/2000/svg">
<circle cx="42.75" cy="42" r="42" fill="#F7C67D"/>
<g clip-path="url(#clip0_115_726)">
<path d="M62.4375 20.0156H23.0625C21.322 20.0156 19.6528 20.707 18.4221 21.9377C17.1914 23.1684 16.5 24.8376 16.5 26.5781V52.8281C16.5 54.5686 17.1914 56.2378 18.4221 57.4685C19.6528 58.6992 21.322 59.3906 23.0625 59.3906H33.7774L42.75 70.1564L51.7226 59.3906H62.4375C64.178 59.3906 65.8472 58.6992 67.0779 57.4685C68.3086 56.2378 69 54.5686 69 52.8281V26.5781C69 24.8376 68.3086 23.1684 67.0779 21.9377C65.8472 20.707 64.178 20.0156 62.4375 20.0156ZM46.0312 46.2656H27.9844V42.9844H46.0312V46.2656ZM57.5156 36.4219H27.9844V33.1406H57.5156V36.4219Z" fill="white"/>
</g>
<defs>
<clipPath id="clip0_115_726">
<rect width="52.5" height="52.5" fill="white" transform="translate(16.5 18.375)"/>
</clipPath>
</defs>
</svg>
