<svg width="85" height="84" viewBox="0 0 85 84" fill="none" xmlns="http://www.w3.org/2000/svg">
<circle cx="42.25" cy="42" r="42" fill="#EABFFF"/>
<g clip-path="url(#clip0_115_708)">
<path d="M42.25 15.75C37.0583 15.75 31.9831 17.2895 27.6663 20.1739C23.3495 23.0583 19.985 27.158 17.9982 31.9546C16.0114 36.7511 15.4915 42.0291 16.5044 47.1211C17.5173 52.2131 20.0173 56.8904 23.6885 60.5616C27.3596 64.2327 32.0369 66.7327 37.1289 67.7456C42.2209 68.7585 47.4989 68.2386 52.2955 66.2518C57.092 64.265 61.1917 60.9005 64.0761 56.5837C66.9605 52.2669 68.5 47.1918 68.5 42C68.5 35.0381 65.7344 28.3613 60.8116 23.4384C55.8887 18.5156 49.2119 15.75 42.25 15.75V15.75ZM27.4844 36.2578C27.4844 34.7349 28.0894 33.2743 29.1662 32.1975C30.2431 31.1206 31.7037 30.5156 33.2266 30.5156C34.7495 30.5156 36.21 31.1206 37.2869 32.1975C38.3638 33.2743 38.9688 34.7349 38.9688 36.2578V37.8984H35.6875V36.2578C35.6875 35.6051 35.4282 34.9792 34.9667 34.5177C34.5052 34.0562 33.8793 33.7969 33.2266 33.7969C32.5739 33.7969 31.9479 34.0562 31.4864 34.5177C31.0249 34.9792 30.7656 35.6051 30.7656 36.2578V37.8984H27.4844V36.2578ZM42.25 56.7656C38.769 56.7656 35.4307 55.3828 32.9692 52.9214C30.5078 50.46 29.125 47.1216 29.125 43.6406H55.375C55.375 47.1216 53.9922 50.46 51.5308 52.9214C49.0694 55.3828 45.731 56.7656 42.25 56.7656ZM57.0156 37.8984H53.7344V36.2578C53.7344 35.6051 53.4751 34.9792 53.0136 34.5177C52.5521 34.0562 51.9261 33.7969 51.2734 33.7969C50.6208 33.7969 49.9948 34.0562 49.5333 34.5177C49.0718 34.9792 48.8125 35.6051 48.8125 36.2578V37.8984H45.5313V36.2578C45.5313 34.7349 46.1362 33.2743 47.2131 32.1975C48.29 31.1206 49.7505 30.5156 51.2734 30.5156C52.7964 30.5156 54.2569 31.1206 55.3338 32.1975C56.4107 33.2743 57.0156 34.7349 57.0156 36.2578V37.8984Z" fill="white"/>
</g>
<defs>
<clipPath id="clip0_115_708">
<rect width="52.5" height="52.5" fill="white" transform="translate(16 15.75)"/>
</clipPath>
</defs>
</svg>
